# Blender v2.79 (sub 0) OBJ File: 'car.blend'
# www.blender.org
mtllib car.mtl
o Torus.001
v 2.693069 -1.403658 -4.227488
v 2.923069 -1.354355 -4.227488
v 3.091441 -1.219658 -4.227488
v 3.153069 -1.035658 -4.227488
v 3.091441 -0.851658 -4.227488
v 2.923069 -0.716960 -4.227488
v 2.693069 -0.667658 -4.227488
v 2.463069 -0.716960 -4.227488
v 2.294698 -0.851658 -4.227488
v 2.233069 -1.035658 -4.227488
v 2.294698 -1.219658 -4.227488
v 2.463069 -1.354355 -4.227488
v 2.693069 -1.130398 -4.978264
v 2.923069 -1.092630 -4.946573
v 3.091441 -0.989446 -4.859991
v 3.153069 -0.848493 -4.741718
v 3.091441 -0.707541 -4.623445
v 2.923069 -0.604357 -4.536863
v 2.693069 -0.566589 -4.505172
v 2.463069 -0.604357 -4.536863
v 2.294698 -0.707541 -4.623445
v 2.233069 -0.848493 -4.741718
v 2.294698 -0.989446 -4.859991
v 2.463069 -1.092630 -4.946573
v 2.693069 -0.438479 -5.377744
v 2.923069 -0.429918 -5.329190
v 3.091441 -0.406528 -5.196539
v 3.153069 -0.374576 -5.015334
v 3.091441 -0.342625 -4.834129
v 2.923069 -0.319235 -4.701478
v 2.693069 -0.310674 -4.652925
v 2.463069 -0.319235 -4.701478
v 2.294698 -0.342625 -4.834129
v 2.233069 -0.374576 -5.015334
v 2.294698 -0.406528 -5.196539
v 2.463069 -0.429918 -5.329190
v 2.693069 0.348342 -5.239006
v 2.923069 0.323691 -5.196309
v 3.091441 0.256342 -5.079657
v 3.153069 0.164342 -4.920308
v 3.091441 0.072342 -4.760960
v 2.923069 0.004993 -4.644309
v 2.693069 -0.019658 -4.601611
v 2.463069 0.004993 -4.644309
v 2.294698 0.072342 -4.760960
v 2.233069 0.164342 -4.920308
v 2.294698 0.256342 -5.079657
v 2.463069 0.323691 -5.196309
v 2.693069 0.861903 -4.626968
v 2.923069 0.815574 -4.610106
v 3.091441 0.689000 -4.564036
v 3.153069 0.516096 -4.501104
v 3.091441 0.343193 -4.438173
v 2.923069 0.216619 -4.392103
v 2.693069 0.170289 -4.375241
v 2.463069 0.216619 -4.392103
v 2.294698 0.343193 -4.438173
v 2.233069 0.516096 -4.501104
v 2.294698 0.689000 -4.564036
v 2.463069 0.815574 -4.610106
v 2.693069 0.861903 -3.828009
v 2.923069 0.815574 -3.844871
v 3.091441 0.689000 -3.890940
v 3.153069 0.516096 -3.953872
v 3.091441 0.343193 -4.016804
v 2.923069 0.216619 -4.062873
v 2.693069 0.170289 -4.079735
v 2.463069 0.216619 -4.062873
v 2.294698 0.343193 -4.016804
v 2.233069 0.516096 -3.953872
v 2.294698 0.689000 -3.890940
v 2.463069 0.815574 -3.844871
v 2.693069 0.348342 -3.215970
v 2.923069 0.323691 -3.258668
v 3.091441 0.256342 -3.375319
v 3.153069 0.164342 -3.534668
v 3.091441 0.072342 -3.694016
v 2.923069 0.004993 -3.810668
v 2.693069 -0.019658 -3.853365
v 2.463069 0.004993 -3.810668
v 2.294698 0.072342 -3.694016
v 2.233069 0.164342 -3.534668
v 2.294698 0.256342 -3.375319
v 2.463069 0.323691 -3.258668
v 2.693069 -0.438479 -3.077233
v 2.923069 -0.429918 -3.125786
v 3.091441 -0.406528 -3.258437
v 3.153069 -0.374576 -3.439642
v 3.091441 -0.342625 -3.620847
v 2.923069 -0.319235 -3.753498
v 2.693069 -0.310674 -3.802051
v 2.463069 -0.319235 -3.753498
v 2.294698 -0.342625 -3.620847
v 2.233069 -0.374576 -3.439642
v 2.294698 -0.406528 -3.258437
v 2.463069 -0.429918 -3.125786
v 2.693069 -1.130398 -3.476712
v 2.923069 -1.092630 -3.508403
v 3.091441 -0.989446 -3.594985
v 3.153069 -0.848493 -3.713258
v 3.091441 -0.707541 -3.831531
v 2.923069 -0.604357 -3.918113
v 2.693069 -0.566589 -3.949804
v 2.463069 -0.604357 -3.918113
v 2.294698 -0.707541 -3.831531
v 2.233069 -0.848493 -3.713258
v 2.294698 -0.989446 -3.594985
v 2.463069 -1.092630 -3.508403
vt 0.555556 0.500000
vt 0.666667 0.583333
vt 0.555556 0.583333
vt 0.555556 0.666667
vt 0.666667 0.666667
vt 0.555556 0.750000
vt 0.666667 0.833333
vt 0.555556 0.833333
vt 0.555556 0.916667
vt 0.666667 1.000000
vt 0.555556 1.000000
vt 0.666667 0.000000
vt 0.555556 0.083333
vt 0.555556 0.000000
vt 0.666667 0.083333
vt 0.555556 0.166667
vt 0.666667 0.166667
vt 0.555556 0.250000
vt 0.666667 0.333333
vt 0.555556 0.333333
vt 0.666667 0.416667
vt 0.555556 0.416667
vt 0.555556 0.500000
vt 0.666667 0.416667
vt 0.666667 0.500000
vt 0.777778 0.500000
vt 0.666667 0.500000
vt 0.777778 0.583333
vt 0.777778 0.666667
vt 0.666667 0.750000
vt 0.777778 0.833333
vt 0.777778 0.916667
vt 0.666667 0.916667
vt 0.777778 1.000000
vt 0.777778 0.083333
vt 0.777778 0.166667
vt 0.666667 0.250000
vt 0.777778 0.250000
vt 0.777778 0.333333
vt 0.888889 0.583333
vt 0.888889 0.666667
vt 0.777778 0.750000
vt 0.888889 0.750000
vt 0.888889 0.916667
vt 0.888889 1.000000
vt 0.888889 0.000000
vt 0.777778 0.000000
vt 0.888889 0.083333
vt 0.888889 0.166667
vt 0.888889 0.250000
vt 0.888889 0.333333
vt 0.777778 0.416667
vt 0.888889 0.500000
vt 1.000000 0.583333
vt 1.000000 0.666667
vt 1.000000 0.833333
vt 0.888889 0.833333
vt 1.000000 0.916667
vt 1.000000 0.000000
vt 1.000000 0.083333
vt 1.000000 0.166667
vt 1.000000 0.333333
vt 1.000000 0.416667
vt 0.888889 0.416667
vt 0.000000 0.500000
vt 0.111111 0.583333
vt 0.000000 0.583333
vt 0.111111 0.666667
vt 0.000000 0.666667
vt 0.000000 0.750000
vt 0.111111 0.833333
vt 0.000000 0.833333
vt 0.000000 0.916667
vt 0.111111 0.916667
vt 0.000000 1.000000
vt 0.111111 0.000000
vt 0.000000 0.083333
vt 0.000000 0.000000
vt 0.111111 0.166667
vt 0.000000 0.166667
vt 0.000000 0.250000
vt 0.111111 0.250000
vt 0.000000 0.333333
vt 0.111111 0.333333
vt 0.000000 0.416667
vt 0.111111 0.416667
vt 0.111111 0.500000
vt 0.222222 0.583333
vt 0.222222 0.666667
vt 0.111111 0.750000
vt 0.222222 0.750000
vt 0.222222 0.833333
vt 0.222222 0.916667
vt 0.111111 1.000000
vt 0.222222 0.000000
vt 0.111111 0.083333
vt 0.222222 0.083333
vt 0.222222 0.166667
vt 0.222222 0.250000
vt 0.222222 0.416667
vt 0.222222 0.500000
vt 0.333333 0.583333
vt 0.333333 0.666667
vt 0.333333 0.750000
vt 0.333333 0.833333
vt 0.333333 0.916667
vt 0.222222 1.000000
vt 0.333333 0.000000
vt 0.333333 0.166667
vt 0.333333 0.250000
vt 0.333333 0.333333
vt 0.222222 0.333333
vt 0.333333 0.416667
vt 0.444444 0.500000
vt 0.333333 0.500000
vt 0.444444 0.583333
vt 0.444444 0.666667
vt 0.444444 0.750000
vt 0.444444 0.916667
vt 0.444444 1.000000
vt 0.333333 1.000000
vt 0.444444 0.083333
vt 0.333333 0.083333
vt 0.444444 0.166667
vt 0.444444 0.250000
vt 0.444444 0.416667
vt 0.444444 0.833333
vt 0.444444 0.000000
vt 0.444444 0.333333
vt 0.555556 0.416667
vt 1.000000 0.500000
vt 1.000000 0.750000
vt 1.000000 1.000000
vt 1.000000 0.250000
vn 0.1975 -0.9212 -0.3353
vn 0.6009 -0.7511 -0.2734
vn 0.9420 -0.3155 -0.1148
vn 0.9420 0.3155 0.1148
vn 0.6009 0.7511 0.2734
vn 0.1975 0.9212 0.3353
vn -0.1975 0.9212 0.3353
vn -0.6009 0.7511 0.2734
vn -0.9420 0.3155 0.1148
vn -0.9420 -0.3155 -0.1148
vn -0.6009 -0.7511 -0.2734
vn -0.1975 -0.9212 -0.3353
vn 0.1975 -0.4902 -0.8490
vn 0.6009 -0.3997 -0.6922
vn 0.9420 -0.1679 -0.2908
vn 0.9420 0.1679 0.2908
vn 0.6009 0.3997 0.6922
vn 0.1975 0.4902 0.8490
vn -0.1975 0.4902 0.8490
vn -0.6009 0.3997 0.6922
vn -0.9420 0.1679 0.2908
vn -0.9420 -0.1679 -0.2908
vn -0.6009 -0.3997 -0.6922
vn -0.1975 -0.4902 -0.8490
vn 0.1975 0.1702 -0.9654
vn 0.6009 0.1388 -0.7872
vn 0.9420 0.0583 -0.3306
vn 0.9420 -0.0583 0.3306
vn 0.6009 -0.1388 0.7872
vn 0.1975 -0.1702 0.9654
vn -0.1975 -0.1702 0.9654
vn -0.6009 -0.1388 0.7872
vn -0.9420 -0.0583 0.3306
vn -0.9420 0.0583 -0.3306
vn -0.6009 0.1388 -0.7872
vn -0.1975 0.1702 -0.9654
vn 0.1975 0.7510 -0.6301
vn 0.6009 0.6123 -0.5138
vn 0.9420 0.2572 -0.2158
vn 0.9420 -0.2572 0.2158
vn 0.6009 -0.6123 0.5138
vn 0.1975 -0.7510 0.6301
vn -0.1975 -0.7510 0.6301
vn -0.6009 -0.6123 0.5138
vn -0.9420 -0.2572 0.2158
vn -0.9420 0.2572 -0.2158
vn -0.6009 0.6123 -0.5138
vn -0.1975 0.7510 -0.6301
vn 0.1975 0.9803 -0.0000
vn 0.6009 0.7993 -0.0000
vn 0.9420 0.3357 -0.0000
vn 0.9420 -0.3357 0.0000
vn 0.6009 -0.7993 0.0000
vn 0.1975 -0.9803 0.0000
vn -0.1975 -0.9803 0.0000
vn -0.6009 -0.7993 0.0000
vn -0.9420 -0.3357 0.0000
vn -0.9420 0.3357 0.0000
vn -0.6009 0.7993 -0.0000
vn -0.1975 0.9803 -0.0000
vn 0.1975 0.7510 0.6301
vn 0.6009 0.6123 0.5138
vn 0.9420 0.2572 0.2158
vn 0.9420 -0.2572 -0.2158
vn 0.6009 -0.6123 -0.5138
vn 0.1975 -0.7510 -0.6301
vn -0.1975 -0.7510 -0.6301
vn -0.6009 -0.6123 -0.5138
vn -0.9420 -0.2572 -0.2158
vn -0.9420 0.2572 0.2158
vn -0.6009 0.6123 0.5138
vn -0.1975 0.7510 0.6301
vn 0.1975 0.1702 0.9654
vn 0.6009 0.1388 0.7872
vn 0.9420 0.0583 0.3306
vn 0.9420 -0.0583 -0.3306
vn 0.6009 -0.1388 -0.7872
vn 0.1975 -0.1702 -0.9654
vn -0.1975 -0.1702 -0.9654
vn -0.6009 -0.1388 -0.7872
vn -0.9420 -0.0583 -0.3306
vn -0.9420 0.0583 0.3306
vn -0.6009 0.1388 0.7872
vn -0.1975 0.1702 0.9654
vn 0.1975 -0.4902 0.8490
vn 0.6009 -0.3997 0.6922
vn 0.9420 -0.1679 0.2908
vn 0.9420 0.1679 -0.2908
vn 0.6009 0.3997 -0.6922
vn 0.1975 0.4902 -0.8490
vn -0.1975 0.4902 -0.8490
vn -0.6009 0.3997 -0.6922
vn -0.9420 0.1679 -0.2908
vn -0.9420 -0.1679 0.2908
vn -0.6009 -0.3997 0.6922
vn -0.1975 -0.4902 0.8490
vn 0.1975 -0.9212 0.3353
vn 0.6009 -0.7511 0.2734
vn 0.9420 -0.3155 0.1148
vn 0.9420 0.3155 -0.1148
vn 0.6009 0.7511 -0.2734
vn 0.1975 0.9212 -0.3353
vn -0.1975 0.9212 -0.3353
vn -0.6009 0.7511 -0.2734
vn -0.9420 0.3155 -0.1148
vn -0.9420 -0.3155 0.1148
vn -0.6009 -0.7511 0.2734
vn -0.1975 -0.9212 0.3353
usemtl None
s off
f 1/1/1 14/2/1 2/3/1
f 14/2/2 3/4/2 2/3/2
f 15/5/3 4/6/3 3/4/3
f 4/6/4 17/7/4 5/8/4
f 17/7/5 6/9/5 5/8/5
f 6/9/6 19/10/6 7/11/6
f 19/12/7 8/13/7 7/14/7
f 20/15/8 9/16/8 8/13/8
f 21/17/9 10/18/9 9/16/9
f 10/18/10 23/19/10 11/20/10
f 11/20/11 24/21/11 12/22/11
f 12/23/12 13/24/12 1/25/12
f 25/26/13 14/2/13 13/27/13
f 26/28/14 15/5/14 14/2/14
f 27/29/15 16/30/15 15/5/15
f 16/30/16 29/31/16 17/7/16
f 17/7/17 30/32/17 18/33/17
f 18/33/18 31/34/18 19/10/18
f 19/12/19 32/35/19 20/15/19
f 32/35/20 21/17/20 20/15/20
f 33/36/21 22/37/21 21/17/21
f 34/38/22 23/19/22 22/37/22
f 35/39/23 24/21/23 23/19/23
f 24/21/24 25/26/24 13/27/24
f 25/26/25 38/40/25 26/28/25
f 38/40/26 27/29/26 26/28/26
f 39/41/27 28/42/27 27/29/27
f 40/43/28 29/31/28 28/42/28
f 29/31/29 42/44/29 30/32/29
f 30/32/30 43/45/30 31/34/30
f 43/46/31 32/35/31 31/47/31
f 44/48/32 33/36/32 32/35/32
f 45/49/33 34/38/33 33/36/33
f 46/50/34 35/39/34 34/38/34
f 47/51/35 36/52/35 35/39/35
f 36/52/36 37/53/36 25/26/36
f 37/53/37 50/54/37 38/40/37
f 50/54/38 39/41/38 38/40/38
f 51/55/39 40/43/39 39/41/39
f 40/43/40 53/56/40 41/57/40
f 53/56/41 42/44/41 41/57/41
f 54/58/42 43/45/42 42/44/42
f 55/59/43 44/48/43 43/46/43
f 56/60/44 45/49/44 44/48/44
f 57/61/45 46/50/45 45/49/45
f 46/50/46 59/62/46 47/51/46
f 47/51/47 60/63/47 48/64/47
f 60/63/48 37/53/48 48/64/48
f 49/65/49 62/66/49 50/67/49
f 50/67/50 63/68/50 51/69/50
f 63/68/51 52/70/51 51/69/51
f 52/70/52 65/71/52 53/72/52
f 65/71/53 54/73/53 53/72/53
f 66/74/54 55/75/54 54/73/54
f 67/76/55 56/77/55 55/78/55
f 56/77/56 69/79/56 57/80/56
f 69/79/57 58/81/57 57/80/57
f 70/82/58 59/83/58 58/81/58
f 71/84/59 60/85/59 59/83/59
f 72/86/60 49/65/60 60/85/60
f 61/87/61 74/88/61 62/66/61
f 74/88/62 63/68/62 62/66/62
f 75/89/63 64/90/63 63/68/63
f 76/91/64 65/71/64 64/90/64
f 77/92/65 66/74/65 65/71/65
f 78/93/66 67/94/66 66/74/66
f 79/95/67 68/96/67 67/76/67
f 80/97/68 69/79/68 68/96/68
f 81/98/69 70/82/69 69/79/69
f 82/99/70 71/84/70 70/82/70
f 71/84/71 84/100/71 72/86/71
f 84/100/72 61/87/72 72/86/72
f 73/101/73 86/102/73 74/88/73
f 74/88/74 87/103/74 75/89/74
f 87/103/75 76/91/75 75/89/75
f 88/104/76 77/92/76 76/91/76
f 89/105/77 78/93/77 77/92/77
f 90/106/78 79/107/78 78/93/78
f 91/108/79 80/97/79 79/95/79
f 80/97/80 93/109/80 81/98/80
f 81/98/81 94/110/81 82/99/81
f 82/99/82 95/111/82 83/112/82
f 95/111/83 84/100/83 83/112/83
f 96/113/84 73/101/84 84/100/84
f 97/114/85 86/102/85 85/115/85
f 98/116/86 87/103/86 86/102/86
f 99/117/87 88/104/87 87/103/87
f 100/118/88 89/105/88 88/104/88
f 89/105/89 102/119/89 90/106/89
f 90/106/90 103/120/90 91/121/90
f 91/108/91 104/122/91 92/123/91
f 104/122/92 93/109/92 92/123/92
f 105/124/93 94/110/93 93/109/93
f 106/125/94 95/111/94 94/110/94
f 95/111/95 108/126/95 96/113/95
f 108/126/96 85/115/96 96/113/96
f 1/1/97 98/116/97 97/114/97
f 2/3/98 99/117/98 98/116/98
f 3/4/99 100/118/99 99/117/99
f 100/118/100 5/8/100 101/127/100
f 5/8/101 102/119/101 101/127/101
f 6/9/102 103/120/102 102/119/102
f 7/14/103 104/122/103 103/128/103
f 8/13/104 105/124/104 104/122/104
f 9/16/105 106/125/105 105/124/105
f 10/18/106 107/129/106 106/125/106
f 11/20/107 108/126/107 107/129/107
f 108/126/108 1/1/108 97/114/108
f 1/1/1 13/27/1 14/2/1
f 14/2/2 15/5/2 3/4/2
f 15/5/3 16/30/3 4/6/3
f 4/6/4 16/30/4 17/7/4
f 17/7/5 18/33/5 6/9/5
f 6/9/6 18/33/6 19/10/6
f 19/12/7 20/15/7 8/13/7
f 20/15/8 21/17/8 9/16/8
f 21/17/9 22/37/9 10/18/9
f 10/18/10 22/37/10 23/19/10
f 11/20/11 23/19/11 24/21/11
f 12/23/12 24/130/12 13/24/12
f 25/26/13 26/28/13 14/2/13
f 26/28/14 27/29/14 15/5/14
f 27/29/15 28/42/15 16/30/15
f 16/30/16 28/42/16 29/31/16
f 17/7/17 29/31/17 30/32/17
f 18/33/18 30/32/18 31/34/18
f 19/12/19 31/47/19 32/35/19
f 32/35/20 33/36/20 21/17/20
f 33/36/21 34/38/21 22/37/21
f 34/38/22 35/39/22 23/19/22
f 35/39/23 36/52/23 24/21/23
f 24/21/24 36/52/24 25/26/24
f 25/26/25 37/53/25 38/40/25
f 38/40/26 39/41/26 27/29/26
f 39/41/27 40/43/27 28/42/27
f 40/43/28 41/57/28 29/31/28
f 29/31/29 41/57/29 42/44/29
f 30/32/30 42/44/30 43/45/30
f 43/46/31 44/48/31 32/35/31
f 44/48/32 45/49/32 33/36/32
f 45/49/33 46/50/33 34/38/33
f 46/50/34 47/51/34 35/39/34
f 47/51/35 48/64/35 36/52/35
f 36/52/36 48/64/36 37/53/36
f 37/53/37 49/131/37 50/54/37
f 50/54/38 51/55/38 39/41/38
f 51/55/39 52/132/39 40/43/39
f 40/43/40 52/132/40 53/56/40
f 53/56/41 54/58/41 42/44/41
f 54/58/42 55/133/42 43/45/42
f 55/59/43 56/60/43 44/48/43
f 56/60/44 57/61/44 45/49/44
f 57/61/45 58/134/45 46/50/45
f 46/50/46 58/134/46 59/62/46
f 47/51/47 59/62/47 60/63/47
f 60/63/48 49/131/48 37/53/48
f 49/65/49 61/87/49 62/66/49
f 50/67/50 62/66/50 63/68/50
f 63/68/51 64/90/51 52/70/51
f 52/70/52 64/90/52 65/71/52
f 65/71/53 66/74/53 54/73/53
f 66/74/54 67/94/54 55/75/54
f 67/76/55 68/96/55 56/77/55
f 56/77/56 68/96/56 69/79/56
f 69/79/57 70/82/57 58/81/57
f 70/82/58 71/84/58 59/83/58
f 71/84/59 72/86/59 60/85/59
f 72/86/60 61/87/60 49/65/60
f 61/87/61 73/101/61 74/88/61
f 74/88/62 75/89/62 63/68/62
f 75/89/63 76/91/63 64/90/63
f 76/91/64 77/92/64 65/71/64
f 77/92/65 78/93/65 66/74/65
f 78/93/66 79/107/66 67/94/66
f 79/95/67 80/97/67 68/96/67
f 80/97/68 81/98/68 69/79/68
f 81/98/69 82/99/69 70/82/69
f 82/99/70 83/112/70 71/84/70
f 71/84/71 83/112/71 84/100/71
f 84/100/72 73/101/72 61/87/72
f 73/101/73 85/115/73 86/102/73
f 74/88/74 86/102/74 87/103/74
f 87/103/75 88/104/75 76/91/75
f 88/104/76 89/105/76 77/92/76
f 89/105/77 90/106/77 78/93/77
f 90/106/78 91/121/78 79/107/78
f 91/108/79 92/123/79 80/97/79
f 80/97/80 92/123/80 93/109/80
f 81/98/81 93/109/81 94/110/81
f 82/99/82 94/110/82 95/111/82
f 95/111/83 96/113/83 84/100/83
f 96/113/84 85/115/84 73/101/84
f 97/114/85 98/116/85 86/102/85
f 98/116/86 99/117/86 87/103/86
f 99/117/87 100/118/87 88/104/87
f 100/118/88 101/127/88 89/105/88
f 89/105/89 101/127/89 102/119/89
f 90/106/90 102/119/90 103/120/90
f 91/108/91 103/128/91 104/122/91
f 104/122/92 105/124/92 93/109/92
f 105/124/93 106/125/93 94/110/93
f 106/125/94 107/129/94 95/111/94
f 95/111/95 107/129/95 108/126/95
f 108/126/96 97/114/96 85/115/96
f 1/1/97 2/3/97 98/116/97
f 2/3/98 3/4/98 99/117/98
f 3/4/99 4/6/99 100/118/99
f 100/118/100 4/6/100 5/8/100
f 5/8/101 6/9/101 102/119/101
f 6/9/102 7/11/102 103/120/102
f 7/14/103 8/13/103 104/122/103
f 8/13/104 9/16/104 105/124/104
f 9/16/105 10/18/105 106/125/105
f 10/18/106 11/20/106 107/129/106
f 11/20/107 12/22/107 108/126/107
f 108/126/108 12/22/108 1/1/108
o Cube
v 3.508066 -0.243940 -6.824896
v 3.508066 -0.243940 5.966939
v -3.508066 -0.243940 5.966938
v -3.508065 -0.243940 -6.824899
v 2.953369 1.418204 -2.557816
v 2.953366 1.418204 4.163197
v -2.953369 1.418204 4.163190
v -2.953368 1.418204 -2.557820
v 3.220957 1.170093 -6.616756
v 3.220953 1.170093 5.599361
v -3.227008 1.170093 -6.616759
v -3.227010 1.170093 5.599356
v 2.067793 3.202512 -1.219404
v 2.067791 3.202512 3.022412
v -2.067792 3.202512 -1.219406
v -2.067793 3.202512 3.022407
vn 0.0000 -1.0000 0.0000
vn 0.0000 0.6001 -0.8000
vn 0.6799 0.7333 0.0000
vn -0.0000 0.9854 0.1702
vn -0.6717 0.7408 -0.0000
vn 0.0000 0.9981 -0.0610
vn 0.0000 0.1456 -0.9893
vn 0.9800 0.1990 0.0000
vn -0.9808 0.1949 -0.0000
vn -0.0000 0.2516 0.9678
vn 0.0000 1.0000 0.0000
vn -0.0000 0.5387 0.8425
vn 0.8957 0.4446 0.0000
vn -0.8957 0.4446 -0.0000
usemtl Material
s off
f 109//109 111//109 112//109
f 113//110 123//110 121//110
f 113//111 118//111 117//111
f 118//112 115//112 120//112
f 120//113 116//113 119//113
f 117//114 116//114 113//114
f 117//115 112//115 119//115
f 109//116 118//116 110//116
f 120//117 112//117 111//117
f 118//118 111//118 110//118
f 121//119 124//119 122//119
f 115//120 122//120 124//120
f 114//121 121//121 122//121
f 115//122 123//122 116//122
f 109//109 110//109 111//109
f 113//110 116//110 123//110
f 113//111 114//111 118//111
f 118//112 114//112 115//112
f 120//113 115//113 116//113
f 117//114 119//114 116//114
f 117//115 109//115 112//115
f 109//116 117//116 118//116
f 120//117 119//117 112//117
f 118//118 120//118 111//118
f 121//119 123//119 124//119
f 115//120 114//120 122//120
f 114//121 113//121 121//121
f 115//122 124//122 123//122
